<mxfile host="app.diagrams.net" modified="2022-09-28T07:27:18.429Z" agent="5.0 (Windows NT 10.0; WOW64) AppleWebKit/537.36 (KHTML, like Gecko) SFive/80.0 Chrome/80.0.3987.145 Safari/537.36" etag="Ax7gi1tgfn8yD19bsVdM" version="20.2.7" type="github">
  <diagram id="mhgbXHnLGzUThERsVz-q" name="Page-1">
    <mxGraphModel dx="1635" dy="1978" grid="1" gridSize="10" guides="1" tooltips="1" connect="1" arrows="1" fold="1" page="1" pageScale="1" pageWidth="850" pageHeight="1100" math="0" shadow="0">
      <root>
        <mxCell id="0" />
        <mxCell id="1" parent="0" />
        <mxCell id="nTmdnqOjoT2S84u8t-Ha-19" style="edgeStyle=orthogonalEdgeStyle;rounded=0;orthogonalLoop=1;jettySize=auto;html=1;entryX=0.5;entryY=1;entryDx=0;entryDy=0;exitX=0.5;exitY=0;exitDx=0;exitDy=0;" edge="1" parent="1" source="nTmdnqOjoT2S84u8t-Ha-21" target="nTmdnqOjoT2S84u8t-Ha-17">
          <mxGeometry relative="1" as="geometry">
            <mxPoint x="170" y="500" as="sourcePoint" />
          </mxGeometry>
        </mxCell>
        <mxCell id="nTmdnqOjoT2S84u8t-Ha-14" style="edgeStyle=orthogonalEdgeStyle;rounded=0;orthogonalLoop=1;jettySize=auto;html=1;exitX=1;exitY=0.5;exitDx=0;exitDy=0;entryX=0;entryY=0.5;entryDx=0;entryDy=0;" edge="1" parent="1" target="nTmdnqOjoT2S84u8t-Ha-10">
          <mxGeometry relative="1" as="geometry">
            <mxPoint x="360" y="540" as="sourcePoint" />
          </mxGeometry>
        </mxCell>
        <mxCell id="nTmdnqOjoT2S84u8t-Ha-15" style="edgeStyle=orthogonalEdgeStyle;rounded=0;orthogonalLoop=1;jettySize=auto;html=1;exitX=0.5;exitY=0;exitDx=0;exitDy=0;entryX=0.5;entryY=1;entryDx=0;entryDy=0;" edge="1" parent="1" source="nTmdnqOjoT2S84u8t-Ha-10">
          <mxGeometry relative="1" as="geometry">
            <mxPoint x="440" y="450" as="targetPoint" />
            <Array as="points" />
          </mxGeometry>
        </mxCell>
        <mxCell id="nTmdnqOjoT2S84u8t-Ha-10" value="ADN layer" style="ellipse;whiteSpace=wrap;html=1;aspect=fixed;" vertex="1" parent="1">
          <mxGeometry x="400" y="500" width="80" height="80" as="geometry" />
        </mxCell>
        <mxCell id="nTmdnqOjoT2S84u8t-Ha-29" style="edgeStyle=orthogonalEdgeStyle;rounded=0;orthogonalLoop=1;jettySize=auto;html=1;" edge="1" parent="1">
          <mxGeometry relative="1" as="geometry">
            <mxPoint x="440" y="370" as="sourcePoint" />
            <mxPoint x="440" y="200" as="targetPoint" />
          </mxGeometry>
        </mxCell>
        <mxCell id="nTmdnqOjoT2S84u8t-Ha-28" style="edgeStyle=orthogonalEdgeStyle;rounded=0;orthogonalLoop=1;jettySize=auto;html=1;entryX=0.227;entryY=1;entryDx=0;entryDy=0;entryPerimeter=0;" edge="1" parent="1" source="nTmdnqOjoT2S84u8t-Ha-17" target="nTmdnqOjoT2S84u8t-Ha-26">
          <mxGeometry relative="1" as="geometry">
            <mxPoint x="320" y="190" as="targetPoint" />
            <Array as="points" />
          </mxGeometry>
        </mxCell>
        <mxCell id="nTmdnqOjoT2S84u8t-Ha-17" value="Vector nhúng các nút không thêm thông tin" style="whiteSpace=wrap;html=1;aspect=fixed;" vertex="1" parent="1">
          <mxGeometry x="280" y="370" width="80" height="80" as="geometry" />
        </mxCell>
        <mxCell id="nTmdnqOjoT2S84u8t-Ha-42" value="Tổng hợp" style="edgeStyle=orthogonalEdgeStyle;rounded=0;orthogonalLoop=1;jettySize=auto;html=1;fontColor=#000000;" edge="1" parent="1" source="nTmdnqOjoT2S84u8t-Ha-20" target="nTmdnqOjoT2S84u8t-Ha-10">
          <mxGeometry relative="1" as="geometry">
            <Array as="points">
              <mxPoint x="530" y="540" />
              <mxPoint x="530" y="540" />
            </Array>
          </mxGeometry>
        </mxCell>
        <mxCell id="nTmdnqOjoT2S84u8t-Ha-47" value="Tổng hợp" style="edgeStyle=orthogonalEdgeStyle;rounded=0;orthogonalLoop=1;jettySize=auto;html=1;entryX=0.5;entryY=1;entryDx=0;entryDy=0;fontColor=#000000;" edge="1" parent="1" source="nTmdnqOjoT2S84u8t-Ha-20" target="nTmdnqOjoT2S84u8t-Ha-45">
          <mxGeometry relative="1" as="geometry" />
        </mxCell>
        <mxCell id="nTmdnqOjoT2S84u8t-Ha-20" value="Thông tin các nút" style="whiteSpace=wrap;html=1;aspect=fixed;" vertex="1" parent="1">
          <mxGeometry x="700" y="500" width="80" height="80" as="geometry" />
        </mxCell>
        <mxCell id="nTmdnqOjoT2S84u8t-Ha-21" value="Đồ thị tri thức" style="whiteSpace=wrap;html=1;aspect=fixed;" vertex="1" parent="1">
          <mxGeometry x="280" y="500" width="80" height="80" as="geometry" />
        </mxCell>
        <mxCell id="nTmdnqOjoT2S84u8t-Ha-33" value="" style="edgeStyle=orthogonalEdgeStyle;rounded=0;orthogonalLoop=1;jettySize=auto;html=1;" edge="1" parent="1" source="nTmdnqOjoT2S84u8t-Ha-26" target="nTmdnqOjoT2S84u8t-Ha-32">
          <mxGeometry relative="1" as="geometry" />
        </mxCell>
        <mxCell id="nTmdnqOjoT2S84u8t-Ha-26" value="KGAT" style="rounded=1;whiteSpace=wrap;html=1;" vertex="1" parent="1">
          <mxGeometry x="270" y="80" width="220" height="120" as="geometry" />
        </mxCell>
        <mxCell id="nTmdnqOjoT2S84u8t-Ha-46" value="Tổng hợp" style="edgeStyle=orthogonalEdgeStyle;rounded=0;orthogonalLoop=1;jettySize=auto;html=1;entryX=0;entryY=0.5;entryDx=0;entryDy=0;fontColor=#000000;" edge="1" parent="1" source="nTmdnqOjoT2S84u8t-Ha-32" target="nTmdnqOjoT2S84u8t-Ha-45">
          <mxGeometry relative="1" as="geometry" />
        </mxCell>
        <mxCell id="nTmdnqOjoT2S84u8t-Ha-32" value="Đầu ra KGAT các nút không thêm thông tin" style="whiteSpace=wrap;html=1;aspect=fixed;" vertex="1" parent="1">
          <mxGeometry x="530" y="100" width="80" height="80" as="geometry" />
        </mxCell>
        <mxCell id="nTmdnqOjoT2S84u8t-Ha-53" style="edgeStyle=orthogonalEdgeStyle;rounded=0;orthogonalLoop=1;jettySize=auto;html=1;entryX=0;entryY=0.5;entryDx=0;entryDy=0;fontColor=#000000;" edge="1" parent="1" source="nTmdnqOjoT2S84u8t-Ha-37" target="nTmdnqOjoT2S84u8t-Ha-50">
          <mxGeometry relative="1" as="geometry" />
        </mxCell>
        <mxCell id="nTmdnqOjoT2S84u8t-Ha-37" value="Đầu ra KGAT các nút thêm thông tin từ đầu" style="whiteSpace=wrap;html=1;aspect=fixed;" vertex="1" parent="1">
          <mxGeometry x="280" y="-130" width="80" height="80" as="geometry" />
        </mxCell>
        <mxCell id="nTmdnqOjoT2S84u8t-Ha-40" value="Vector nhúng các nút thêm thông tin" style="whiteSpace=wrap;html=1;aspect=fixed;" vertex="1" parent="1">
          <mxGeometry x="400" y="370" width="80" height="80" as="geometry" />
        </mxCell>
        <mxCell id="nTmdnqOjoT2S84u8t-Ha-44" value="" style="endArrow=classic;html=1;rounded=0;fontColor=#000000;exitX=0.22;exitY=0.003;exitDx=0;exitDy=0;entryX=0.5;entryY=1;entryDx=0;entryDy=0;exitPerimeter=0;" edge="1" parent="1" source="nTmdnqOjoT2S84u8t-Ha-26" target="nTmdnqOjoT2S84u8t-Ha-37">
          <mxGeometry width="50" height="50" relative="1" as="geometry">
            <mxPoint x="550" y="-100" as="sourcePoint" />
            <mxPoint x="600" y="-150" as="targetPoint" />
          </mxGeometry>
        </mxCell>
        <mxCell id="nTmdnqOjoT2S84u8t-Ha-48" style="edgeStyle=orthogonalEdgeStyle;rounded=0;orthogonalLoop=1;jettySize=auto;html=1;fontColor=#000000;entryX=0.5;entryY=1;entryDx=0;entryDy=0;" edge="1" parent="1" source="nTmdnqOjoT2S84u8t-Ha-45" target="nTmdnqOjoT2S84u8t-Ha-49">
          <mxGeometry relative="1" as="geometry">
            <mxPoint x="740" y="-40" as="targetPoint" />
          </mxGeometry>
        </mxCell>
        <mxCell id="nTmdnqOjoT2S84u8t-Ha-45" value="ADN layer" style="ellipse;whiteSpace=wrap;html=1;aspect=fixed;" vertex="1" parent="1">
          <mxGeometry x="700" y="100" width="80" height="80" as="geometry" />
        </mxCell>
        <mxCell id="nTmdnqOjoT2S84u8t-Ha-52" style="edgeStyle=orthogonalEdgeStyle;rounded=0;orthogonalLoop=1;jettySize=auto;html=1;entryX=1;entryY=0.5;entryDx=0;entryDy=0;fontColor=#000000;" edge="1" parent="1" source="nTmdnqOjoT2S84u8t-Ha-49" target="nTmdnqOjoT2S84u8t-Ha-50">
          <mxGeometry relative="1" as="geometry" />
        </mxCell>
        <mxCell id="nTmdnqOjoT2S84u8t-Ha-49" value="&lt;br&gt;&lt;span style=&quot;color: rgb(0, 0, 0); font-family: Helvetica; font-size: 12px; font-style: normal; font-variant-ligatures: normal; font-variant-caps: normal; font-weight: 400; letter-spacing: normal; orphans: 2; text-align: center; text-indent: 0px; text-transform: none; widows: 2; word-spacing: 0px; -webkit-text-stroke-width: 0px; background-color: rgb(248, 249, 250); text-decoration-style: initial; text-decoration-color: initial; float: none; display: inline !important;&quot;&gt;Đầu ra KGAT các nút thêm thông tin sau đó&lt;/span&gt;&lt;br&gt;" style="whiteSpace=wrap;html=1;aspect=fixed;fontColor=#000000;" vertex="1" parent="1">
          <mxGeometry x="700" y="-130" width="80" height="80" as="geometry" />
        </mxCell>
        <mxCell id="nTmdnqOjoT2S84u8t-Ha-54" style="edgeStyle=orthogonalEdgeStyle;rounded=0;orthogonalLoop=1;jettySize=auto;html=1;fontColor=#000000;" edge="1" parent="1" source="nTmdnqOjoT2S84u8t-Ha-50" target="nTmdnqOjoT2S84u8t-Ha-55">
          <mxGeometry relative="1" as="geometry">
            <mxPoint x="530" y="-240" as="targetPoint" />
          </mxGeometry>
        </mxCell>
        <mxCell id="nTmdnqOjoT2S84u8t-Ha-50" value="Average" style="whiteSpace=wrap;html=1;aspect=fixed;fontColor=#000000;" vertex="1" parent="1">
          <mxGeometry x="490" y="-130" width="80" height="80" as="geometry" />
        </mxCell>
        <mxCell id="nTmdnqOjoT2S84u8t-Ha-55" value="Link prediction cho bài toán khuyến nghị" style="shape=cylinder3;whiteSpace=wrap;html=1;boundedLbl=1;backgroundOutline=1;size=15;fontColor=#000000;" vertex="1" parent="1">
          <mxGeometry x="440" y="-410" width="180" height="220" as="geometry" />
        </mxCell>
      </root>
    </mxGraphModel>
  </diagram>
</mxfile>
